  <svg
        width="160px"
        height="160px"
        viewBox="0 0 125 116"
        fill="none"
        xmlns="http://www.w3.org/2000/svg"
      >
        <rect width="125" height="116" fill="#red" />
        <path
          fill-rule="evenodd"
          clip-rule="evenodd"
          d="M30.1768 3.95275C32.0271 -1.43678 40.5592 -1.19701 42.1916 3.95275C46.5414 16.7208 53.0918 25.2487 58.9794 32.5915C45.6253 37.7043 36.1842 50.296 36.1842 65.0242C36.1842 68.3862 36.6761 71.6368 37.5943 74.7125C37.167 74.5359 36.6889 74.4371 36.1842 74.4371C27.1155 74.4371 19.7368 68.0152 19.7368 60.1223C19.7368 58.5405 18.2648 57.2594 16.4474 57.2594C14.6299 57.2594 13.1579 58.5405 13.1579 60.1223C13.1579 71.1716 23.4889 80.1631 36.1842 80.1631C37.4211 80.1631 38.4979 79.5697 39.0597 78.692C40.9679 83.018 43.7545 86.8949 47.2032 90.1134C43.7296 91.0887 40.0274 91.6149 36.1842 91.6149C16.1842 91.6149 0 77.3627 0 59.7484C0 49.2954 5.67553 42.2168 12.4574 33.7585C18.5838 26.1175 25.6131 17.3505 30.1768 3.95275ZM60.5906 83.2852C56.7855 86.3466 52.2342 88.7009 47.2032 90.1134C53.6939 96.1709 62.5297 99.8966 72.2683 99.8966C80.6474 99.8966 88.35 97.1471 94.4738 92.5198V95.2526C94.4738 96.3256 94.9075 97.3483 95.6882 98.1027L112.984 114.818C114.615 116.394 117.252 116.394 118.865 114.818L123.775 110.073C125.405 108.497 125.405 105.949 123.792 104.373L106.496 87.6578C105.715 86.9033 104.657 86.4842 103.547 86.4842H100.719C105.507 80.5659 108.352 73.122 108.352 65.0242C108.352 45.7605 92.2012 30.1518 72.2683 30.1518C67.5752 30.1518 63.0917 31.017 58.9794 32.5915C59.3003 32.9917 59.6192 33.3884 59.9357 33.7821C62.787 37.3287 65.4409 40.6296 67.5583 44.0467C57.5456 46.132 50.0627 54.731 50.0627 65.0242C50.0627 72.7478 54.2714 79.5061 60.5906 83.2852ZM60.5906 83.2852C67.8303 77.4603 72.3684 69.0757 72.3684 59.7484C72.3684 53.6672 70.4709 48.7471 67.5583 44.0467C69.0759 43.7307 70.6517 43.5642 72.2683 43.5642C84.5334 43.5642 94.4738 53.1542 94.4738 65.0242C94.4738 76.8775 84.5507 86.4842 72.2683 86.4842C67.9838 86.4842 63.9831 85.314 60.5906 83.2852ZM39.0597 78.692C39.3235 78.28 39.4737 77.8054 39.4737 77.3001C39.4737 76.1576 38.7057 75.1719 37.5943 74.7125C38.001 76.0752 38.4914 77.4035 39.0597 78.692Z"
          fill="#fe9e0d"
        />
      </svg>